<?xml version="1.0" encoding="iso-8859-1"?>
<!-- Generator: Adobe Illustrator 19.0.0, SVG Export Plug-In . SVG Version: 6.00 Build 0)  -->
<svg version="1.1" id="Capa_1" xmlns="http://www.w3.org/2000/svg" xmlns:xlink="http://www.w3.org/1999/xlink" x="0px" y="0px"
	 viewBox="0 0 496 496" style="enable-background:new 0 0 496 496;" xml:space="preserve">
<g>
	<g>
		<g>
			<path d="M421.556,393.944L427.068,416h-22.56c-2.232-10.96-9.024-20.2-18.224-25.912l51.032-16.24v-107.48
				c21.456-29.68,33.184-66.136,31.896-104.176C466.188,72.76,389.028,0,297.204,0h-53.648c-27.792,0-53.472,5.592-76.328,16.632
				c-60.4,29.16-97.912,88.648-97.912,155.248c0,20.512-9.184,39.624-25.2,52.432l-17.424,13.936l3.888,6.064
				c26.784,41.776,46.648,87.32,59.04,135.36l2.496,9.68c4.296,16.664,15,30.192,29.36,37.12c7.584,3.656,15.816,5.48,24.008,5.48
				c9,0,17.968-2.192,26.048-6.568L291.508,360.4c20.696-11.216,42.344-21.64,63.28-31.72c6.68-3.216,13.36-6.432,20.024-9.68
				c17.64-8.592,33.248-20.096,46.496-33.664v76.808l-160,50.912V400h-16v96h218.248l-26.48-105.944L421.556,393.944z
				 M367.812,304.624c-6.64,3.24-13.304,6.448-19.96,9.656c-7.424,3.576-14.992,7.272-22.528,10.96V296h-16v37.216
				c-5.36,2.696-10.688,5.472-16,8.256V296h-16v53.904l-16,8.664V296h-16v71.232l-81.408,44.096
				c-10.92,5.912-24.192,6.192-35.48,0.744c-10.112-4.872-17.704-14.608-20.824-26.704l-2.496-9.68
				c-0.664-2.576-1.432-5.12-2.136-7.68h22.336v-16H98.284c-12.12-38.704-28.96-75.68-50.392-110.216l6.224-4.984
				c19.832-15.864,31.2-39.528,31.2-64.928c0-60.408,34.056-114.376,88.864-140.84C194.852,21.056,218.196,16,243.556,16h1.76v50.96
				c-37.776,18.024-64,56.472-64,101.04c0,61.76,50.24,112,112,112s112-50.24,112-112s-50.24-112-112-112
				c-11.12,0-21.848,1.68-32,4.72V16h35.888c83.296,0,153.28,65.824,156.024,146.728
				C455.252,222.664,421.732,278.36,367.812,304.624z M237.116,212.888l-17.04,17.04c-14.168-16.736-22.76-38.336-22.76-61.928
				s8.592-45.192,22.76-61.928l17.04,17.04c-9.864,12.328-15.8,27.912-15.8,44.888S227.252,200.56,237.116,212.888z M248.428,224.2
				c12.32,9.864,27.912,15.8,44.888,15.8s32.568-5.936,44.888-15.8l17.04,17.04C338.508,255.408,316.908,264,293.316,264
				c-23.592,0-45.192-8.592-61.928-22.76L248.428,224.2z M237.316,168c0-30.88,25.128-56,56-56s56,25.12,56,56s-25.128,56-56,56
				S237.316,198.88,237.316,168z M349.516,212.888c9.864-12.328,15.8-27.912,15.8-44.888s-5.936-32.56-15.8-44.888l17.04-17.04
				c14.168,16.736,22.76,38.336,22.76,61.928s-8.592,45.192-22.76,61.928L349.516,212.888z M338.204,111.8
				c-12.32-9.864-27.912-15.8-44.888-15.8s-32.568,5.936-44.888,15.8l-17.04-17.04C248.124,80.592,269.724,72,293.316,72
				c23.592,0,45.192,8.592,61.928,22.76L338.204,111.8z M261.316,429.856l67.136-21.368c-2.016,4.776-3.136,10.016-3.136,15.512
				c0,11.808,5.24,22.32,13.4,29.648l-77.4,23.56V429.856z M307.076,480l53.712-16.344l-0.032-0.112c1.512,0.168,3,0.456,4.56,0.456
				c0.992,0,1.928-0.224,2.904-0.296L376.372,480H307.076z M365.316,448c-13.232,0-24-10.768-24-24s10.768-24,24-24s24,10.768,24,24
				S378.548,448,365.316,448z M394.26,480l-10.392-20.776c3.328-1.76,6.432-3.872,9.128-6.464L429.324,480H394.26z M402.132,439.616
				c1.032-2.424,1.832-4.976,2.376-7.616h26.56l9.016,36.08L402.132,439.616z"/>
			<path d="M293.316,208c22.056,0,40-17.944,40-40c0-22.056-17.944-40-40-40c-22.056,0-40,17.944-40,40
				C253.316,190.056,271.26,208,293.316,208z M293.316,144c13.232,0,24,10.768,24,24s-10.768,24-24,24s-24-10.768-24-24
				S280.084,144,293.316,144z"/>
			<rect x="101.316" y="200" width="56" height="16"/>
			<rect x="357.316" y="416" width="16" height="16"/>
			<rect x="421.316" y="160" width="16" height="16"/>
			<rect x="403.1" y="92.012" transform="matrix(0.4999 0.8661 -0.8661 0.4999 292.2135 -306.0322)" width="16" height="16"/>
			<rect x="353.308" y="42.242" transform="matrix(-0.8661 -0.4999 0.4999 -0.8661 649.1172 274.3718)" width="16" height="16"/>
			<rect x="285.316" y="24" width="16" height="16"/>
			<rect x="353.315" y="277.796" transform="matrix(-0.4999 -0.8661 0.8661 -0.4999 294.4099 741.5934)" width="16" height="16"/>
			<rect x="403.091" y="228.004" transform="matrix(-0.8661 -0.4999 0.4999 -0.8661 649.1548 645.9059)" width="16" height="16"/>
		</g>
	</g>
</g>
<g>
</g>
<g>
</g>
<g>
</g>
<g>
</g>
<g>
</g>
<g>
</g>
<g>
</g>
<g>
</g>
<g>
</g>
<g>
</g>
<g>
</g>
<g>
</g>
<g>
</g>
<g>
</g>
<g>
</g>
</svg>
