<?xml version="1.0" encoding="iso-8859-1"?>
<!-- Generator: Adobe Illustrator 19.0.0, SVG Export Plug-In . SVG Version: 6.00 Build 0)  -->
<svg version="1.1" id="Capa_1" xmlns="http://www.w3.org/2000/svg" xmlns:xlink="http://www.w3.org/1999/xlink" x="0px" y="0px"
	 viewBox="0 0 496.496 496.496" style="enable-background:new 0 0 496.496 496.496;" xml:space="preserve">
<g>
	<g>
		<g>
			<path d="M248.248,176.248c-39.704,0-72,32.304-72,72s32.296,72,72,72c39.704,0,72-32.304,72-72S287.952,176.248,248.248,176.248z
				 M248.248,256.248c-4.416,0-8-3.592-8-8c0-4.408,3.584-8,8-8s8,3.592,8,8S252.664,256.248,248.248,256.248z M256.248,303.608
				v-32.832c9.288-3.312,16-12.112,16-22.528c0-13.232-10.768-24-24-24c-13.232,0-24,10.768-24,24c0,10.416,6.712,19.216,16,22.528
				v32.832c-27.088-3.904-48-27.208-48-55.36c0-30.88,25.128-56,56-56s56,25.12,56,56
				C304.248,276.4,283.336,299.704,256.248,303.608z"/>
			<path d="M343.2,290.496c0.744-1.656,1.44-3.32,2.08-4.976l38.968-6.496v-61.552l-38.968-6.496
				c-1.208-3.128-2.608-6.272-4.176-9.384l-14.296,7.184c1.984,3.944,3.648,7.928,4.936,11.832l1.512,4.584l34.992,5.832v34.448
				l-34.984,5.832l-1.512,4.584c-1.288,3.904-2.952,7.888-4.936,11.832l-2.168,4.32l20.64,28.888l-24.36,24.352l-28.888-20.64
				l-4.32,2.176c-3.928,1.984-7.912,3.648-11.824,4.936l-4.584,1.512l-5.848,34.984h-34.44l-5.832-34.984l-4.584-1.512
				c-3.904-1.288-7.888-2.952-11.824-4.936l-4.32-2.176l-28.888,20.64l-29.16-29.152l-11.312,11.312l38.736,38.736l32.168-22.976
				c1.656,0.744,3.312,1.44,4.976,2.08l6.48,38.968h61.552l6.496-38.96c1.664-0.648,3.32-1.336,4.976-2.08l32.168,22.976
				l43.528-43.528L343.2,290.496z"/>
			<path d="M155.384,294.904l14.296-7.184c-1.984-3.944-3.648-7.928-4.936-11.832l-1.512-4.584l-34.984-5.832v-34.448l34.984-5.832
				l1.512-4.584c1.288-3.904,2.952-7.888,4.936-11.832l2.168-4.32l-20.64-28.888l24.36-24.352l28.888,20.64l4.32-2.176
				c3.928-1.984,7.912-3.648,11.824-4.936l4.584-1.512l5.848-34.984h34.44l5.832,34.984l4.584,1.512
				c3.904,1.288,7.888,2.952,11.824,4.936l4.32,2.176l28.888-20.64l29.16,29.152l11.312-11.312l-38.736-38.736l-32.168,22.968
				c-1.656-0.744-3.312-1.44-4.976-2.08l-6.48-38.96H217.48l-6.496,38.96c-1.664,0.648-3.32,1.336-4.976,2.08l-32.168-22.976
				l-43.528,43.536l22.984,32.16c-0.744,1.656-1.44,3.32-2.08,4.976l-38.968,6.488v61.552l38.968,6.496
				C152.424,288.656,153.824,291.792,155.384,294.904z"/>
			<rect x="240.248" y="144.248" width="16" height="16"/>
			<rect x="172.367" y="172.368" transform="matrix(0.7071 -0.7071 0.7071 0.7071 -74.7111 180.3675)" width="16" height="16"/>
			<rect x="144.248" y="240.248" width="16" height="16"/>
			<rect x="172.363" y="308.124" transform="matrix(-0.7071 0.7071 -0.7071 -0.7071 531.4326 412.1212)" width="16" height="16"/>
			<rect x="240.248" y="336.248" width="16" height="16"/>
			<rect x="308.119" y="308.128" transform="matrix(-0.7071 0.7071 -0.7071 -0.7071 763.1853 316.1343)" width="16" height="16"/>
			<rect x="336.248" y="240.248" width="16" height="16"/>
			<rect x="308.131" y="172.372" transform="matrix(0.7071 -0.7071 0.7071 0.7071 -34.9496 276.3683)" width="16" height="16"/>
			<path d="M496.008,246.304c-0.416-1.656-43.872-166.056-247.76-166.056S0.904,244.648,0.488,246.304L0,248.248l0.496,1.944
				c0.408,1.656,43.864,166.056,247.752,166.056s247.344-164.4,247.76-166.056l0.488-1.944L496.008,246.304z M16.552,248.288
				c4.184-13.872,33.76-99.576,133.192-135.84c-42.016,30.568-69.496,79.976-69.496,135.8c0,56.2,27.84,105.912,70.344,136.432
				C49.656,349,20.824,263.12,16.552,248.288z M96.248,248.248c0-83.816,68.184-152,152-152s152,68.184,152,152s-68.184,152-152,152
				S96.248,332.064,96.248,248.248z M346.752,384.048c42.016-30.568,69.496-79.976,69.496-135.8
				c0-56.2-27.84-105.912-70.344-136.432c100.936,35.68,129.76,121.56,134.04,136.384
				C475.76,262.08,446.184,347.776,346.752,384.048z"/>
			<path d="M240.248,456.248c0,4.408-3.584,8-8,8H102.776c-3.312-9.288-12.112-16-22.528-16c-13.232,0-24,10.768-24,24
				s10.768,24,24,24c10.416,0,19.216-6.712,22.528-16h129.472c13.232,0,24-10.768,24-24v-24h-16V456.248z M80.248,480.248
				c-4.416,0-8-3.592-8-8c0-4.408,3.584-8,8-8s8,3.592,8,8C88.248,476.656,84.664,480.248,80.248,480.248z"/>
			<path d="M104.248,400.248v-8h-16v8c0,4.408-3.584,8-8,8H46.776c-3.312-9.288-12.112-16-22.528-16c-13.232,0-24,10.768-24,24
				s10.768,24,24,24c10.416,0,19.216-6.712,22.528-16h33.472C93.48,424.248,104.248,413.48,104.248,400.248z M24.248,424.248
				c-4.416,0-8-3.592-8-8c0-4.408,3.584-8,8-8s8,3.592,8,8C32.248,420.656,28.664,424.248,24.248,424.248z"/>
			<path d="M256.248,40.248c0-4.408,3.584-8,8-8H393.72c3.312,9.288,12.112,16,22.528,16c13.232,0,24-10.768,24-24s-10.768-24-24-24
				c-10.416,0-19.216,6.712-22.528,16H264.248c-13.232,0-24,10.768-24,24v24h16V40.248z M416.248,16.248c4.416,0,8,3.592,8,8
				s-3.584,8-8,8c-4.416,0-8-3.592-8-8S411.832,16.248,416.248,16.248z"/>
			<path d="M392.248,96.248v8h16v-8c0-4.408,3.584-8,8-8h33.472c3.312,9.288,12.112,16,22.528,16c13.232,0,24-10.768,24-24
				s-10.768-24-24-24c-10.416,0-19.216,6.712-22.528,16h-33.472C403.016,72.248,392.248,83.016,392.248,96.248z M472.248,72.248
				c4.416,0,8,3.592,8,8s-3.584,8-8,8c-4.416,0-8-3.592-8-8S467.832,72.248,472.248,72.248z"/>
		</g>
	</g>
</g>
<g>
</g>
<g>
</g>
<g>
</g>
<g>
</g>
<g>
</g>
<g>
</g>
<g>
</g>
<g>
</g>
<g>
</g>
<g>
</g>
<g>
</g>
<g>
</g>
<g>
</g>
<g>
</g>
<g>
</g>
</svg>
